<svg xmlns="http://www.w3.org/2000/svg" viewBox="0 0 200 200" width="200" height="200" role="img" aria-label="Tired platelet, factor levels running low">
  <ellipse cx="100" cy="175" rx="43" ry="8" fill="#E2E8F0" />

  <g fill="#F0A0AE" stroke="#F0A0AE" stroke-width="22" stroke-linecap="round" stroke-linejoin="round">
    <path d="M 100 100 Q 102 64 84 36" fill="none" />
    <path d="M 100 100 Q 72 80 42 72" fill="none" />
    <path d="M 100 100 Q 128 80 158 72" fill="none" />
    <path d="M 100 100 Q 72 104 38 116" fill="none" />
    <path d="M 100 100 Q 128 104 162 116" fill="none" />
    <path d="M 100 100 Q 86 128 72 158" fill="none" />
    <path d="M 100 100 Q 114 128 128 158" fill="none" />
    <circle cx="100" cy="100" r="41" />
  </g>

  <g>
    <circle cx="72" cy="108" r="7" fill="#FF4766" opacity="0.22" />
    <circle cx="128" cy="108" r="7" fill="#FF4766" opacity="0.22" />
    <ellipse cx="82" cy="96" rx="6" ry="3.5" fill="#2D3748" />
    <ellipse cx="118" cy="96" rx="6" ry="3.5" fill="#2D3748" />
    <path d="M 75 87 Q 82 84 89 87" stroke="#2D3748" stroke-width="2.5" fill="none" stroke-linecap="round" opacity="0.55" />
    <path d="M 111 87 Q 118 84 125 87" stroke="#2D3748" stroke-width="2.5" fill="none" stroke-linecap="round" opacity="0.55" />
    <path d="M 92 109 Q 96 105.5 100 109 Q 104 112.5 108 109" stroke="#2D3748" stroke-width="3" fill="none" stroke-linecap="round" stroke-linejoin="round" />
  </g>

  <path d="M 140 44 Q 147 55 140 58 Q 133 55 140 44 Z" fill="#8FC0DE" />
</svg>
